<svg id="Layer_1" data-name="Layer 1" xmlns="http://www.w3.org/2000/svg" viewBox="0 0 123 40"><defs><style>.cls-1{fill:#fff;}.cls-2{fill:#126f72;}.cls-3{fill:#00515b;}.cls-4{fill:#003247;}.cls-5{fill:#262261;}.cls-6{fill:#662d91;}.cls-7{fill:#9e1f63;}.cls-8{fill:#be1e2d;}.cls-9{fill:#da1c5c;}.cls-10{fill:#ef4136;}</style></defs><title>logo-small-registered</title><path class="cls-1" d="M47.71,28.4c-2.84.13-4.94-1.37-4.94-4.53V13.57H41.11V12.2h1.66V6.05h1.66V12.2h3.28v1.37H44.43v10.3c0,1.91,1.21,3.06,3.28,3Z"/><path class="cls-1" d="M53.78,6.09v6.82A9.6,9.6,0,0,1,58,12c4.34-.06,7.72,2.62,7.72,7.27v9.19H64V19.22c0-3.47-2.71-5.67-6.06-5.67a10.85,10.85,0,0,0-4.17.83v14H52.12V6.09Z"/><path class="cls-1" d="M71.64,12.24l.26,2.1c1.91-3.06,5.74-2.45,7.59-1.65l-.67,1.37c-3-1.47-7,.19-6.89,4V28.41H70.3V12.24Z"/><path class="cls-1" d="M84.5,8.57H82.74V6.12H84.5ZM82.78,28.41V12.21h1.69v16.2Z"/><path class="cls-1" d="M94.42,27.07h.13l5-15h1.75l-5.64,16.3H93.3l-5.67-16.3h1.72Z"/><path class="cls-1" d="M117.79,20.55v.07a6.22,6.22,0,0,1-2,4.6A6.66,6.66,0,0,1,111,27.16a6.58,6.58,0,0,1-5.29-2.58L118,16l0-.06a8.26,8.26,0,0,0-3-2.8,8.17,8.17,0,0,0-4-1,7.79,7.79,0,0,0-5.86,2.4,8.18,8.18,0,0,0-2.29,5.82,7.83,7.83,0,0,0,2.39,5.8,8.26,8.26,0,0,0,6,2.35,7.72,7.72,0,0,0,5.65-2.33,7.59,7.59,0,0,0,2.34-5.52v-.07ZM116,15.71l-11,7.64a6.82,6.82,0,0,1-.65-3,7,7,0,0,1,1.91-4.91,6.26,6.26,0,0,1,4.8-2.06A6,6,0,0,1,116,15.71Z"/><path class="cls-1" d="M20.23,12.69a19.32,19.32,0,0,1,6.71-1.1c4.6,0,8.36,2,8.36,7.39v9.43H31.8V19c0-3.31-2.5-4.34-5.19-4.34a11.56,11.56,0,0,0-2.82.48V28.41H20.23Z"/><path class="cls-2" d="M34.52,30.91l1.27,1.39a19.87,19.87,0,0,0,3.73-7.89l-1.67-.14A15.78,15.78,0,0,1,34.52,30.91Z"/><path class="cls-2" d="M38.05,23.3h1.69A19.68,19.68,0,0,0,40,19.19l-1.74.46A16,16,0,0,1,38.05,23.3Z"/><path class="cls-3" d="M38.16,18.51l1.74-.61a20,20,0,0,0-1.25-5.13l-1.73,1.3A16.3,16.3,0,0,1,38.16,18.51Z"/><path class="cls-4" d="M36.45,13.08l1.69-1.51a19.31,19.31,0,0,0-1.69-3l-1.6,2A15.88,15.88,0,0,1,36.45,13.08Z"/><path class="cls-5" d="M34.12,9.74c.5-.76,1-1.51,1.5-2.24a19.74,19.74,0,0,0-2.83-2.88c-.4,1-.81,1.89-1.22,2.84A15.91,15.91,0,0,1,34.12,9.74Z"/><path class="cls-6" d="M29.28,6.08c.5.25,1,.53,1.46.82l1.12-3a20,20,0,0,0-3-1.84l-.26-.12c-.21,1.19-.43,2.38-.64,3.57C28.38,5.67,28.83,5.87,29.28,6.08Z"/><path class="cls-7" d="M27,5.17l.45-3.73A19.7,19.7,0,0,0,23.22.26l.3,4.23A16,16,0,0,1,27,5.17Z"/><path class="cls-7" d="M22.44,4.43c-.14-1.46-.3-2.92-.5-4.34a20.44,20.44,0,0,0-5.13.17q.84,2.3,1.67,4.6A15.92,15.92,0,0,1,22.44,4.43Z"/><path class="cls-8" d="M17.3,5.18l-2-4.63a20.7,20.7,0,0,0-4,1.43l3,4.5A16.59,16.59,0,0,1,17.3,5.18Z"/><path class="cls-9" d="M13.16,7.18,9.9,2.74A20.18,20.18,0,0,0,5.17,6.58l4.57,3.7A16.17,16.17,0,0,1,13.16,7.18Z"/><path class="cls-2" d="M31.07,34l.87,2.07a20.26,20.26,0,0,0,3.13-2.88l-1.2-1.53A16.4,16.4,0,0,1,31.07,34Z"/><path class="cls-3" d="M25.84,36.25l0,2.88a19.9,19.9,0,0,0,5-2.31c-.24-.74-.49-1.49-.74-2.23A16.25,16.25,0,0,1,25.84,36.25Z"/><path class="cls-4" d="M21.7,36.67c-.29,1.11-.59,2.22-.89,3.33a20,20,0,0,0,3.7-.5l.21-3A16,16,0,0,1,21.7,36.67Z"/><path class="cls-5" d="M17.44,36c-.65,1.18-1.3,2.35-2,3.52a19.45,19.45,0,0,0,3.84.51c.38-1.1.8-2.24,1.23-3.4A15.46,15.46,0,0,1,17.44,36Z"/><path class="cls-6" d="M15.05,35q-.62-.31-1.2-.66l-3,3.4.37.19a19.53,19.53,0,0,0,2.89,1.15l2.35-3.49C16,35.44,15.5,35.25,15.05,35Z"/><path class="cls-7" d="M10.28,31.46,6,34.29a20.05,20.05,0,0,0,3.54,2.77l3.37-3.3A16.13,16.13,0,0,1,10.28,31.46Z"/><path class="cls-7" d="M7.66,27.59c-1.77.64-3.54,1.28-5.28,1.87A20,20,0,0,0,5,33.29c1.81-1,3.25-1.92,4.5-2.7A15.88,15.88,0,0,1,7.66,27.59Z"/><path class="cls-8" d="M6.29,23.39l-5.9.52a20.11,20.11,0,0,0,1.33,4.2l5.47-1.56A17.27,17.27,0,0,1,6.29,23.39Z"/><path class="cls-9" d="M6.37,17.3.43,15.89A19.51,19.51,0,0,0,.14,22.3l6-.14A15.93,15.93,0,0,1,6.37,17.3Z"/><path class="cls-10" d="M7.69,13.44a17.07,17.07,0,0,1,1.2-2L4.06,7.92a20.66,20.66,0,0,0-2,3.26,19.06,19.06,0,0,0-1.17,3L6.73,15.9A16.91,16.91,0,0,1,7.69,13.44Z"/><path class="cls-1" d="M120.06,13.84a1.61,1.61,0,0,1,.19-.78,1.45,1.45,0,0,1,2.56,0,1.61,1.61,0,0,1,.19.78,1.56,1.56,0,0,1-.19.76,1.39,1.39,0,0,1-.53.57,1.32,1.32,0,0,1-.75.22,1.42,1.42,0,0,1-.75-.21,1.52,1.52,0,0,1-.53-.57A1.6,1.6,0,0,1,120.06,13.84Zm.24,0a1.4,1.4,0,0,0,.16.66,1.2,1.2,0,0,0,.45.47,1.14,1.14,0,0,0,.62.17,1.23,1.23,0,0,0,.62-.17,1.3,1.3,0,0,0,.45-.48,1.42,1.42,0,0,0,0-1.31,1.27,1.27,0,0,0-.45-.47,1.22,1.22,0,0,0-1.24,0,1.2,1.2,0,0,0-.45.47A1.34,1.34,0,0,0,120.3,13.84Zm.93.15v.7h-.3V12.93h.58a.79.79,0,0,1,.49.14.45.45,0,0,1,.17.39.41.41,0,0,1-.26.39.41.41,0,0,1,.25.43v.12a.56.56,0,0,0,0,.26v0h-.3a.79.79,0,0,1,0-.26,1,1,0,0,0,0-.23q0-.19-.27-.21Zm0-.26h.32a.43.43,0,0,0,.24-.08.2.2,0,0,0,.09-.17.27.27,0,0,0-.08-.22.5.5,0,0,0-.29-.06h-.28Z"/></svg>