<svg xmlns="http://www.w3.org/2000/svg" width="61" height="75" viewBox="0 0 61 75"><defs><style>.a{fill:#9e1f63;fill-rule:evenodd;}</style></defs><path class="a" d="M31.49,20.35a9.35,9.35,0,1,0,9.4,9.34A9.38,9.38,0,0,0,31.49,20.35Zm0,16.74a7.4,7.4,0,1,1,7.44-7.4A7.42,7.42,0,0,1,31.49,37.09Zm3.3-12,1.57,1.16L30,34.79l-3.06-3.41,1.46-1.3,1.46,1.63Zm20.1,4.66L43.4,16H10.68V43.26H43.39ZM12.64,41.31V17.93H42.48l9.86,11.84L42.48,41.31Zm6.78,20.1v-3H16.08V44.31h-2V58.39H12.64V44.31h-2V58.39h-3v3H5v1.95H56V61.41Zm-9.78,0V60.34h7.82v1.07Zm3-46.3h-2V11.64h5.39v3.47h-2V13.59H12.64Zm1.47,3.95h2v21.3h-2Zm3.31,6.74h2v1.37h-2Zm0,3.31h2v1.37h-2Zm0,3.31h2v1.37h-2Z"/></svg>