<svg xmlns="http://www.w3.org/2000/svg" width="61" height="75" viewBox="0 0 61 75"><defs><style>.a{fill:#9e1f63;}</style></defs><path class="a" d="M24.24,29.76c-4.13,0-17.83-.74-21-10.26a1.8,1.8,0,0,1,1.71-2.36c6.3,0,8.35-1.24,10.16-2.33l.38-.23A8.33,8.33,0,0,1,20.11,13a5.23,5.23,0,0,1,5.11,5.08v2.46a.67.67,0,0,0,.67.67h1.65v1.94H25.89a2.62,2.62,0,0,1-2.63-2.62V18.11A3.27,3.27,0,0,0,20.11,15a6.49,6.49,0,0,0-3.64,1.27l-.37.23c-2,1.21-4.28,2.58-11,2.61a11.37,11.37,0,0,0,5.22,5.74V22.35h2v3.44q.73.31,1.56.59V23.71h2v3.22q.72.17,1.49.32v-3h2v3.27q.75.09,1.56.15V25h2v2.8l1.45,0h3.3v1.94Zm8.8,14c2.79,1.46,4.39,3.67,4.39,6.13a5.45,5.45,0,0,1-2.77,4.58l-1-1.65a3.54,3.54,0,0,0,1.84-2.93c0-1.85-1.42-3.55-3.9-4.68l-1.25-.61c-.42-.2-.88-.39-1.35-.59-2.64-1.1-6.25-2.6-6.25-7.31,0-3.73,2.24-5,4-6l.69-.39,1,1.67-.74.42c-1.7.93-3,1.67-3,4.26,0,3.32,2.32,4.38,4.84,5.42V18.35a4.47,4.47,0,1,1,2,0v24l.22-.09c2.6-1.08,5.05-2.1,5.05-5.51,0-2.59-1.34-3.32-3-4.26L33,32l1-1.67.69.39c1.8,1,4,2.22,4,6C38.69,41.06,35.59,42.67,33,43.75ZM30.49,16.51A2.51,2.51,0,1,0,28,14,2.52,2.52,0,0,0,30.49,16.51Zm5.33,44.21a5,5,0,0,1-5.09,4.72c-2.55,0-5.64-2.28-5.66-5.1A5.37,5.37,0,0,1,26.17,57l1.53,1.21A3.42,3.42,0,0,0,27,60.33c0,1.25,1.23,2.44,2.53,2.93V56.43l-1-.41c-2.22-.92-5.27-2.19-5.27-6.19,0-3.18,2-4.27,3.43-5.07l.57-.32,1,1.67-.62.35c-1.4.77-2.42,1.33-2.42,3.37,0,2.52,1.61,3.38,4.07,4.4l.2.08V47.17h2v8l.08,0C34.26,56.47,35.82,58.47,35.82,60.72Zm-2,0A4.05,4.05,0,0,0,31.5,57.4v6A3,3,0,0,0,33.86,60.72ZM57.54,17.89a1.81,1.81,0,0,0-1.46-.75c-6.3,0-8.35-1.24-10.16-2.33l-.39-.23A8.33,8.33,0,0,0,40.89,13a5.23,5.23,0,0,0-5.11,5.08v2.46a.67.67,0,0,1-.67.67H33.46v1.94h1.65a2.62,2.62,0,0,0,2.63-2.62V18.11A3.27,3.27,0,0,1,40.89,15a6.49,6.49,0,0,1,3.64,1.27l.37.22c2,1.21,4.28,2.58,11,2.61a11.37,11.37,0,0,1-5.22,5.74V22.35h-2v3.44q-.73.31-1.56.59V23.71h-2v3.22q-.72.17-1.49.31v-3h-2v3.27q-.75.09-1.56.15V25h-2v2.8l-1.45,0h-3.3v1.94h3.3c4.13,0,17.83-.74,21-10.26A1.78,1.78,0,0,0,57.54,17.89Z"/></svg>