<svg xmlns="http://www.w3.org/2000/svg" width="61" height="75" viewBox="0 0 61 75"><defs><style>.a{fill:#9e1f63;fill-rule:evenodd;}</style></defs><path class="a" d="M15.81,19.1h-2V16.76h2Zm0,2.37h-2v2.34h2Zm0,4.71h-2v2.34h2Zm-2,7.05h2V30.89h-2Zm19.39,8.19v1.95H40.1V4.94H8.35V43.37H27.42V41.42H10.31V6.89H38.14V41.42ZM56.25,27V40.37a6.64,6.64,0,0,1-6.75,6.51H42.86l.06,12.73a13.68,13.68,0,1,1-27.36-.18V53.25a4.44,4.44,0,0,1-2.7-2.44H4.75V1.4h39V43h-2V3.35h-35V48.86h5.79a4.43,4.43,0,0,1,8.85,0h2.56a2.69,2.69,0,1,1,.61,0h15v1.95H21a4.44,4.44,0,0,1-3.51,2.62v6A12,12,0,0,0,29.27,71.32,11.7,11.7,0,0,0,41,59.62L40.9,46.89H35.64a6.64,6.64,0,0,1-6.75-6.51V27a6.6,6.6,0,0,1,5.77-6.44V19.33h2V23.7h-2V22.58A4.63,4.63,0,0,0,30.85,27V40.37a4.68,4.68,0,0,0,4.78,4.57H49.5a4.68,4.68,0,0,0,4.78-4.57V27a4.62,4.62,0,0,0-3.75-4.45v1.1h-2V19.33h2v1.29A6.59,6.59,0,0,1,56.25,27Zm-32,19.9a.72.72,0,1,0-.73-.72A.72.72,0,0,0,24.23,46.94Zm-9.76,1.92H19.4a2.48,2.48,0,0,0-4.93,0Zm2.47,2.68a2.49,2.49,0,0,0,1.77-.73H15.17A2.49,2.49,0,0,0,16.93,51.54Z"/></svg>