<svg id="chicklets" xmlns="http://www.w3.org/2000/svg" width="515" height="515" viewBox="0 0 515 515"><defs><style>.cls-1{fill:#929497;}.cls-2{fill:none;stroke:#929497;stroke-width:1.13px;}.cls-3{fill:#da1c5c;}.cls-4{fill:#9e1f63;}.cls-5{fill:#662d91;}</style></defs><title>wheel-chiklet</title><polygon class="cls-1" points="37.07 377.18 34.34 386.52 46.54 379.4 37.07 377.18"/><line class="cls-2" x1="34.54" y1="387.14" x2="75.87" y2="363.01"/><polygon class="cls-1" points="471.07 388.73 480.51 386.38 468.22 379.42 471.07 388.73"/><line class="cls-2" x1="480.94" y1="385.9" x2="439.3" y2="362.32"/><polygon class="cls-1" points="257.98 0.14 257.98 14.27 264.67 7.2 257.98 0.14"/><rect class="cls-1" x="256.78" width="1.13" height="47.88"/><path class="cls-3" d="M279.29,49.1a209.47,209.47,0,0,1,35.38,6.77L328.22,9.71a257.51,257.51,0,0,0-44.36-8.49Z"/><path class="cls-3" d="M318.33,56.93a208.61,208.61,0,0,1,33.45,13.38l22-42.76a256.52,256.52,0,0,0-41.94-16.77Z"/><path class="cls-3" d="M355.16,72.06a210.16,210.16,0,0,1,30.3,19.49l29.73-37.81a258.19,258.19,0,0,0-38-24.44Z"/><path class="cls-3" d="M388.45,93.9a210.92,210.92,0,0,1,26.07,24.86l36.34-31.5a259.2,259.2,0,0,0-32.69-31.17Z"/><path class="cls-3" d="M417,121.64A210.25,210.25,0,0,1,437.94,151l41.65-24.05a258.58,258.58,0,0,0-26.22-36.79Z"/><path class="cls-3" d="M439.85,154.28a209.06,209.06,0,0,1,15,32.78l45.45-15.73a256.85,256.85,0,0,0-18.77-41.1Z"/><path class="cls-3" d="M456.06,190.66a209.12,209.12,0,0,1,8.46,35l47.59-6.84a257,257,0,0,0-10.6-43.92Z"/><path class="cls-3" d="M466.77,265.45l48,2.29c.14-3.53.21-7,.21-10.29a261.23,261.23,0,0,0-2.35-34.83l-47.59,6.84a212.65,212.65,0,0,1,1.86,28C466.92,260,466.87,262.71,466.77,265.45Z"/><path class="cls-3" d="M461.52,304.93l46.73,11.34a258.94,258.94,0,0,0,6.36-44.73l-48-2.29A210.56,210.56,0,0,1,461.52,304.93Z"/><path class="cls-3" d="M448.87,342.71l43.75,20A256.51,256.51,0,0,0,507.35,320l-46.73-11.34A208.46,208.46,0,0,1,448.87,342.71Z"/><path class="cls-4" d="M403.45,407.74l33.19,34.81a259.38,259.38,0,0,0,29.59-34.15l-39.17-27.9A211,211,0,0,1,403.45,407.74Z"/><path class="cls-4" d="M372.38,432.67l26,40.47a259,259,0,0,0,35.5-28L400.7,410.37A210.72,210.72,0,0,1,372.38,432.67Z"/><path class="cls-4" d="M337.15,451.26,355,495.92a257,257,0,0,0,40.16-20.72l-26-40.47A209.21,209.21,0,0,1,337.15,451.26Z"/><path class="cls-4" d="M299,462.8l9.1,47.23a256.52,256.52,0,0,0,43.37-12.69l-17.87-44.66A208.71,208.71,0,0,1,299,462.8Z"/><path class="cls-4" d="M259.4,466.91V515a260,260,0,0,0,45-4.26l-9.1-47.22A211.78,211.78,0,0,1,259.4,466.91Z"/><path class="cls-4" d="M210.62,510.74a260.29,260.29,0,0,0,45,4.26V466.91a211.78,211.78,0,0,1-35.88-3.4Z"/><path class="cls-4" d="M163.51,497.33A256.55,256.55,0,0,0,206.88,510L216,462.8a208.63,208.63,0,0,1-34.59-10.13Z"/><path class="cls-4" d="M119.82,475.19A257.29,257.29,0,0,0,160,495.92l17.88-44.66a209.07,209.07,0,0,1-32-16.53Z"/><path class="cls-4" d="M81.12,445.18a258.92,258.92,0,0,0,35.5,28l26-40.47a210.85,210.85,0,0,1-28.32-22.3Z"/><path class="cls-4" d="M48.77,408.39a259.18,259.18,0,0,0,29.59,34.15l33.19-34.81a211,211,0,0,1-23.6-27.25Z"/><path class="cls-5" d="M7.64,320a256.54,256.54,0,0,0,14.74,42.72l43.75-20a208.65,208.65,0,0,1-11.75-34.07Z"/><path class="cls-5" d="M.39,271.54a258.83,258.83,0,0,0,6.36,44.73l46.73-11.34a210.6,210.6,0,0,1-5.07-35.68Z"/><path class="cls-5" d="M2.35,222.61A261.33,261.33,0,0,0,0,257.44c0,3.31.07,6.77.21,10.29l48-2.29c-.11-2.74-.16-5.43-.16-8a212.4,212.4,0,0,1,1.86-28Z"/><path class="cls-5" d="M2.89,218.84l47.59,6.84a208.93,208.93,0,0,1,8.46-35L13.49,174.93A256.92,256.92,0,0,0,2.89,218.84Z"/><path class="cls-5" d="M14.73,171.33l45.45,15.73a209,209,0,0,1,15-32.78L33.5,130.23A257,257,0,0,0,14.73,171.33Z"/><path class="cls-5" d="M35.41,126.93,77.06,151A210.4,210.4,0,0,1,98,121.64L61.63,90.14A258.56,258.56,0,0,0,35.41,126.93Z"/><path class="cls-5" d="M64.13,87.27l36.34,31.5A211,211,0,0,1,126.55,93.9L96.82,56.09A259.16,259.16,0,0,0,64.13,87.27Z"/><path class="cls-5" d="M99.81,53.74l29.73,37.81a210,210,0,0,1,30.3-19.49l-22-42.76A258.28,258.28,0,0,0,99.81,53.74Z"/><path class="cls-5" d="M141.19,27.55l22,42.76a208.63,208.63,0,0,1,33.45-13.38L183.13,10.78A256.43,256.43,0,0,0,141.19,27.55Z"/><path class="cls-5" d="M186.78,9.71l13.55,46.15A209.28,209.28,0,0,1,235.7,49.1L231.13,1.23A257.58,257.58,0,0,0,186.78,9.71Z"/></svg>