<svg id="Layer_1" data-name="Layer 1" xmlns="http://www.w3.org/2000/svg" width="515" height="515" viewBox="0 0 515 515"><defs><style>.cls-1{fill:#f2f3f3;}.cls-2,.cls-4{fill:none;}.cls-2{stroke:#929497;stroke-width:0.25px;}.cls-3{fill:#fff;}.cls-5{fill:#929497;}</style></defs><title>wheel-center-2</title><path class="cls-1" d="M257.5,450.12c106.38,0,192.61-86.23,192.61-192.61S363.88,64.88,257.5,64.88,64.88,151.12,64.88,257.5,151.12,450.12,257.5,450.12"/><path class="cls-1" d="M257.5,429.25A171.75,171.75,0,1,0,85.75,257.5h0A171.75,171.75,0,0,0,257.5,429.25"/><circle class="cls-2" cx="257.5" cy="257.5" r="171.75"/><path class="cls-1" d="M257.5,408.19A150.69,150.69,0,1,0,106.81,257.5h0A150.69,150.69,0,0,0,257.5,408.19"/><circle class="cls-2" cx="257.5" cy="257.5" r="150.69"/><path class="cls-1" d="M257.5,387.13A129.63,129.63,0,1,0,127.88,257.49h0A129.63,129.63,0,0,0,257.5,387.13"/><circle class="cls-2" cx="257.5" cy="257.5" r="129.63"/><path class="cls-1" d="M257.5,366.07a108.59,108.59,0,1,0-.05,0h.05"/><circle class="cls-2" cx="257.5" cy="257.5" r="108.57"/><path class="cls-1" d="M257.5,345A87.51,87.51,0,1,0,170,257.5,87.51,87.51,0,0,0,257.5,345h0"/><circle class="cls-2" cx="257.5" cy="257.5" r="87.51"/><path class="cls-3" d="M257.5,324.88a67.42,67.42,0,1,0-67.42-67.42,67.42,67.42,0,0,0,67.42,67.42h0"/><path class="cls-4" d="M261.71,274.32a10.46,10.46,0,0,0-.59-3.5c-.62-1.76-1.76-4-3.62-5.11-2.88,1.71-3.92,5.73-4.17,6.94a2.36,2.36,0,0,0,0,.49v9.26h8.43Z"/><path class="cls-4" d="M261.88,270.53a11.32,11.32,0,0,1,.64,3.78v8.11h12.26l3.21-6.59H266.46l-2.73-2.39.56-.64,2.49,2.18h11.67l6.78-13.91L282.88,260l-6.5,12.53-7.45-12.75c-1.49.76-7.31,3.71-10.6,5.51A10.82,10.82,0,0,1,261.88,270.53Zm11.71,7.08.77.37-1.62,3.31-.77-.37Zm-3.86,0,.77.37-1.62,3.32-.77-.37Z"/><path class="cls-4" d="M252.5,272.49a4.09,4.09,0,0,1,.21-.87,3.48,3.48,0,1,1-3.5-5v-5.11L246.13,260l-6.47,9.72-7.4-9.94-3.12,1.64v5.94h3a3.16,3.16,0,0,1,3.21,3.11h0v6.45a3.16,3.16,0,0,1-3.21,3.11h0v-.85a2.31,2.31,0,0,0,2.36-2.26h0v-6.46a2.31,2.31,0,0,0-2.36-2.26h-6.7a2.31,2.31,0,0,0-2.36,2.26h0v6.46a2.31,2.31,0,0,0,2.36,2.26h0V280a3.16,3.16,0,0,1-3.21-3.11h0v-6.46a3.16,3.16,0,0,1,3.21-3.11h2.8v-5.49c-2.51,1.32-5.54,2.9-7.4,3.84-2.12,1.07-3.29,3.59-3.89,5.51a9.89,9.89,0,0,0-.44,3v8.29c8.43,0,25.22.11,35.89.1v-9.35A3.17,3.17,0,0,1,252.5,272.49Z"/><path class="cls-4" d="M285.68,248.24h-.24a.79.79,0,0,1-.22,0,.8.8,0,0,1-.41-.19h0a.82.82,0,0,1-.27-.63h0l.12-2.44v-.75a2.56,2.56,0,0,0-1.31-2.63l-.42-.24a32.73,32.73,0,0,1-14,0,2.67,2.67,0,0,0-1.73,2.87V245s.09,1.62.16,2.32a.9.9,0,0,1,0,.34.72.72,0,0,1-.26.5.83.83,0,0,1-.45.16,1.4,1.4,0,0,1-.48.07,3.85,3.85,0,0,0,.13,1.56,2.81,2.81,0,0,0,1.23,1.83l.2.08.15.53c1.29,4.71,2.13,7.81,8.08,7.86s6.79-3.15,8.08-7.86l.15-.53.19-.08a2.81,2.81,0,0,0,1.23-1.83,3.72,3.72,0,0,0,.11-1.67Z"/><path class="cls-4" d="M256.64,265.24c-1.83-1-4.4-2.25-6.58-3.34v4.68a3.48,3.48,0,0,1,3.05,3.43,3.4,3.4,0,0,1,0,.43A10.65,10.65,0,0,1,256.64,265.24Z"/><ellipse class="cls-4" cx="249.63" cy="270.02" rx="2.64" ry="2.63"/><path class="cls-4" d="M266,247.38h.52v-.05l-.12-2.35c-.11-2.32.2-3.36,2.16-4.42l.16-.08.16-.08.17.05a31.44,31.44,0,0,0,13.86,0l.17-.05.16.08c1.87,1,2.34,1.89,2.34,3.75V245l-.12,2.4H286l.29-5.73a7.68,7.68,0,0,0-2-5.71,7,7,0,0,0-5.1-2.2h-6.34a7,7,0,0,0-5.1,2.2,7.69,7.69,0,0,0-2,5.71Z"/><path class="cls-4" d="M294.11,265.63l-1.68-.87-5,10.27h3.63l.12.1a6.1,6.1,0,0,1,2.11,4.15,4.71,4.71,0,0,1-1.35,3.2c3.25,0,5.61,0,6.48-.06v-9.14a3.47,3.47,0,0,0-.09-.8C298.06,271.24,296.88,267.07,294.11,265.63Z"/><path class="cls-4" d="M290.77,275.88h-3.71l-3.2,6.62h6.9a4.29,4.29,0,0,0,1.71-3.19A5.19,5.19,0,0,0,290.77,275.88Z"/><path class="cls-4" d="M232.49,258.63l7.12,9.56,6.22-9.34.34.17,3.89,1.94h0l2.81,1.41a7.23,7.23,0,0,1-1.72-4.32V251.1a19.55,19.55,0,0,0-.22-2.94V248a14.45,14.45,0,0,0,.2-1.68,13.77,13.77,0,0,0-3.62-10.22,11.15,11.15,0,0,0-15.75-.68q-.35.32-.68.68a13.77,13.77,0,0,0-3.62,10.22,14.43,14.43,0,0,0,.21,1.75v.14a19.58,19.58,0,0,0-.21,2.87v6.24c0,1.54-1.13,3.39-2.57,5.26,3.5-1.82,7.21-3.79,7.27-3.81Z"/><polygon class="cls-4" points="285.95 261.57 279.1 275.65 279.1 275.88 278.99 275.88 275.81 282.39 282.96 282.39 291.63 264.49 285.95 261.57"/><path class="cls-5" d="M265.1,247.43a.92.92,0,0,0,.25.58,4.49,4.49,0,0,0,.12,2.12,3.79,3.79,0,0,0,1.53,2.3v.14c1.29,4.71,2.3,8.44,8.9,8.49s7.61-3.77,8.89-8.49v-.14a3.8,3.8,0,0,0,1.53-2.3,4.47,4.47,0,0,0,.11-2.13.79.79,0,0,0,.25-.58l.33-5.74a8.54,8.54,0,0,0-2.27-6.34,7.79,7.79,0,0,0-5.72-2.47h-6.34a7.79,7.79,0,0,0-5.71,2.47,8.54,8.54,0,0,0-2.27,6.34Zm20.47,2.45a2.81,2.81,0,0,1-1.23,1.83l-.19.08-.15.53c-1.29,4.71-2.13,7.81-8.08,7.86s-6.79-3.15-8.08-7.86l-.15-.53-.2-.08a2.81,2.81,0,0,1-1.21-1.83,3.85,3.85,0,0,1-.13-1.56,1.4,1.4,0,0,0,.48-.07.83.83,0,0,0,.45-.16.72.72,0,0,0,.26-.5.9.9,0,0,0,0-.34c-.07-.7-.16-2.32-.16-2.32v-.75a2.67,2.67,0,0,1,1.73-2.87,32.73,32.73,0,0,0,14,0l.42.24a2.56,2.56,0,0,1,1.31,2.63v.75l-.12,2.44h0a.82.82,0,0,0,.27.63h0a.8.8,0,0,0,.41.19.79.79,0,0,0,.22,0h.24A3.72,3.72,0,0,1,285.57,249.88Zm-17.91-14a7,7,0,0,1,5.1-2.2h6.34a7,7,0,0,1,5.1,2.2,7.68,7.68,0,0,1,2,5.71l-.29,5.73h-.54l.12-2.4v-.75a3.54,3.54,0,0,0-2.34-3.75l-.16-.08-.17.05a31.44,31.44,0,0,1-13.86,0l-.17-.05-.16.08-.16.08c-2,1.05-2.28,2.1-2.16,4.42l.12,2.35v.05h-.52l-.33-5.73A7.69,7.69,0,0,1,267.66,235.88Z"/><path class="cls-5" d="M253.28,282.39v-9.26a2.36,2.36,0,0,1,0-.49c.25-1.21,1.29-5.23,4.17-6.94l-.12-.08-.73-.39a10.65,10.65,0,0,0-3.57,5.2,3.42,3.42,0,0,1-.36,1.16c-.1.35-.17.65-.21.87a3.17,3.17,0,0,0-.07.66v9.35c4.55,0,8,0,9.17-.06Z"/><rect class="cls-5" x="271.37" y="279.05" width="3.69" height="0.85" transform="translate(-97.7 402.66) rotate(-64.02)"/><rect class="cls-5" x="267.51" y="279.04" width="3.69" height="0.85" transform="translate(-99.87 399.18) rotate(-64.02)"/><path class="cls-5" d="M239.38,262.15c4.09,0,7.8-3.61,9.27-9A4.12,4.12,0,0,0,250,250.9c.47-1.71.07-3.21-.93-3.49H249a25.73,25.73,0,0,1-3.51-7.42l-.21-1-.56.87c-2.39,3.73-10.61,6.89-15.38,7.64l-.14.05c-.81.46-1.09,1.84-.67,3.36a3.88,3.88,0,0,0,1.56,2.36C231.63,258.67,235.25,262.15,239.38,262.15Zm-8.53-9.5-.19-.08a2.9,2.9,0,0,1-1.26-1.89,2.58,2.58,0,0,1,.22-2.36c4.74-.77,12.31-3.65,15.33-7.28.87,2.76,3.26,7.23,4,7.27H249a2.56,2.56,0,0,1,.22,2.38,3.18,3.18,0,0,1-1.15,1.84l-.15.09v.17c-1.34,5.1-4.76,8.52-8.49,8.52s-7.2-3.43-8.57-8.43Z"/><path class="cls-5" d="M252.88,283.24h-.42v-.75c-10.67,0-27.46-.06-35.89-.1V274.1a9.89,9.89,0,0,1,.44-3c.6-1.92,1.77-4.43,3.89-5.51,1.86-.94,4.89-2.52,7.4-3.84v5.49h-2.8a3.16,3.16,0,0,0-3.21,3.11h0v6.53A3.16,3.16,0,0,0,225.5,280h0v-.85a2.31,2.31,0,0,1-2.36-2.26h0v-6.46a2.31,2.31,0,0,1,2.36-2.26h6.7a2.31,2.31,0,0,1,2.36,2.26h0v6.46a2.31,2.31,0,0,1-2.36,2.26h0V280a3.16,3.16,0,0,0,3.18-3.11v-6.46a3.16,3.16,0,0,0-3.21-3.11h-3v-5.94l3.12-1.64,7.4,9.94,6.47-9.72,3.09,1.54v5.11a3.47,3.47,0,1,0,3.5,5c.09-.34.21-.73.36-1.16a3.4,3.4,0,0,0,0-.43,3.48,3.48,0,0,0-3.05-3.43v-4.7c2.18,1.09,4.74,2.39,6.58,3.34a6.61,6.61,0,0,1,.58-.36l.28-.15L255,263.4c-1.28-1.28-3-3.21-3-5.37v-6.95a20.44,20.44,0,0,0-.22-3,15.24,15.24,0,0,0,.2-1.71,14.62,14.62,0,0,0-3.85-10.85,12,12,0,0,0-17-.71q-.37.34-.71.71a14.62,14.62,0,0,0-3.85,10.85,15.22,15.22,0,0,0,.21,1.79,20.51,20.51,0,0,0-.21,2.92v6.24c0,1.66-1.78,4-3.52,6.15h0l-2.56,1.41c-2.39,1.21-3.67,3.94-4.32,6a10.73,10.73,0,0,0-.48,3.21v9.14h.42c15.78.08,26.18.11,33,.11,5.86,0,9.13,0,11-.08ZM252.29,270a2.64,2.64,0,1,1-2.65-2.63h0a2.64,2.64,0,0,1,2.61,2.63ZM227.5,257.34V251.1a19.58,19.58,0,0,1,.21-2.87v-.14a14.43,14.43,0,0,1-.21-1.75,13.77,13.77,0,0,1,3.62-10.22,11.15,11.15,0,0,1,15.75-.68q.35.32.68.68a13.77,13.77,0,0,1,3.62,10.22A14.45,14.45,0,0,1,251,248v.14a19.55,19.55,0,0,1,.22,2.94v6.95a7.23,7.23,0,0,0,1.72,4.32L250.1,261h0L246.21,259l-.34-.17-6.22,9.34-7.12-9.56-.32.17c-.05,0-3.77,2-7.27,3.81,1.39-1.88,2.52-3.73,2.52-5.27Z"/><path class="cls-5" d="M256.64,265.24l.73.39.12.08.13-.08.71-.39a5.72,5.72,0,0,0-.56-.36l-.28-.15-.28.15A6.61,6.61,0,0,0,256.64,265.24Z"/><path class="cls-5" d="M252.71,271.61a3.42,3.42,0,0,0,.36-1.16A7.12,7.12,0,0,0,252.71,271.61Z"/><path class="cls-5" d="M299.3,282.64v-9.35a4.31,4.31,0,0,0-.12-1c-.41-1.71-1.68-5.85-4.68-7.42C290.93,263,283,259,282.9,259l-.37-.19-6.18,11.9-7.07-12.11-.36.18c-.08,0-7.77,3.93-11.42,5.94l.28.15a5.72,5.72,0,0,1,.56.36c3.29-1.8,9.1-4.75,10.6-5.51l7.45,12.75,6.5-12.52,2.33,1.17L278.43,275H266.78l-2.49-2.15-.56.64,2.73,2.39H278l-3.21,6.59H262.56c-.32,0-5.58.05-10.13.06v.75h7.72c11.74.05,20,.08,25.7.08,13.29,0,13.35-.13,13.45-.37l.11-.27Zm-23.49-.25,3.17-6.51h.11v-.23L286,261.57l5.67,2.91L283,282.39Zm8.05.09,3.2-6.62h3.71a5.19,5.19,0,0,1,1.7,3.41,4.29,4.29,0,0,1-1.71,3.19Zm14.59-.06c-.86,0-3.23,0-6.48.06a4.71,4.71,0,0,0,1.35-3.2,6.1,6.1,0,0,0-2.11-4.15l-.12-.1h-3.63l5-10.27,1.68.87c2.77,1.44,3.95,5.61,4.24,6.86a3.47,3.47,0,0,1,.09.8Z"/></svg>