<svg id="Layer_1" data-name="Layer 1" xmlns="http://www.w3.org/2000/svg" width="30" height="30" viewBox="0 0 30 30"><defs><style>.cls-1{fill:#4a1c6b;}</style></defs><title>globe</title><path class="cls-1" d="M15,0A15,15,0,1,0,30,15,15,15,0,0,0,15,0ZM10.95,2a10,10,0,0,0-.85,1L10,3.1A14.2,14.2,0,0,0,8.58,5.71l-.07.16-.07.18A11.2,11.2,0,0,1,6.19,4.6,13.56,13.56,0,0,1,10.95,2ZM5.21,5.53A12.68,12.68,0,0,0,8,7.33l-.05.17a22.92,22.92,0,0,0-.78,3.32,3.4,3.4,0,0,1-.06.45Q7,12,6.93,12.63a2.24,2.24,0,0,1,0,.52,11.37,11.37,0,0,1,0,1.17H1.36A13.6,13.6,0,0,1,5.21,5.53ZM1.36,15.68H6.82a11.1,11.1,0,0,0,0,1.17,2.19,2.19,0,0,0,0,.52q.06.68.16,1.36a3.4,3.4,0,0,0,.06.45,22.89,22.89,0,0,0,.8,3.31l.05.17a12.64,12.64,0,0,0-2.77,1.8A13.6,13.6,0,0,1,1.36,15.68ZM6.14,25.4a11.24,11.24,0,0,1,2.26-1.45.51.51,0,0,0,.07.18l.07.16A14.2,14.2,0,0,0,10,26.9l.07.1a10,10,0,0,0,.85,1A13.57,13.57,0,0,1,6.19,25.4Zm8.18,3.17c-1.9-.37-3.55-2.3-4.67-5.14a15.3,15.3,0,0,1,4.67-.93Zm0-7.43a16.55,16.55,0,0,0-5.11,1,24.14,24.14,0,0,1-1-6.44h6.14Zm0-6.82H8.18a24.14,24.14,0,0,1,1-6.47,16.57,16.57,0,0,0,5.13,1Zm0-6.82a15.3,15.3,0,0,1-4.67-.9c1.11-2.83,2.77-4.77,4.67-5.14Zm14.32,6.82H23.18a11.17,11.17,0,0,0,0-1.17,2.19,2.19,0,0,0,0-.52q-.06-.68-.16-1.36a3.4,3.4,0,0,0-.06-.45,22.92,22.92,0,0,0-.8-3.31L22,7.33a12.68,12.68,0,0,0,2.77-1.8A13.59,13.59,0,0,1,28.64,14.32ZM23.86,4.6a11.21,11.21,0,0,1-2.26,1.45.51.51,0,0,0-.07-.18l-.07-.16A14.18,14.18,0,0,0,20,3.1L19.94,3a10,10,0,0,0-.85-1A13.57,13.57,0,0,1,23.81,4.6ZM15.68,1.43c1.9.37,3.55,2.3,4.67,5.14a15.3,15.3,0,0,1-4.67.93Zm0,7.43a16.58,16.58,0,0,0,5.11-1,24.17,24.17,0,0,1,1,6.44H15.68Zm0,6.82h6.14a24.17,24.17,0,0,1-1,6.47,16.55,16.55,0,0,0-5.13-1Zm0,12.89V22.5a15.3,15.3,0,0,1,4.67.9C19.23,26.26,17.58,28.19,15.68,28.57ZM19.05,28a10,10,0,0,0,.85-1l.08-.1a14.18,14.18,0,0,0,1.45-2.61l.07-.16a.67.67,0,0,1,.07-.18,11.24,11.24,0,0,1,2.26,1.45A13.58,13.58,0,0,1,19.05,28Zm5.75-3.55A12.64,12.64,0,0,0,22,22.67l.05-.17a22.93,22.93,0,0,0,.78-3.32,3.4,3.4,0,0,1,.06-.45q.1-.68.16-1.36a2.24,2.24,0,0,1,0-.52,11.36,11.36,0,0,1,0-1.17h5.45a13.6,13.6,0,0,1-3.83,8.8Z"/></svg>