<?xml version="1.0" encoding="utf-8"?>
<!-- Generator: Adobe Illustrator 18.1.1, SVG Export Plug-In . SVG Version: 6.00 Build 0)  -->
<svg version="1.1" id="Layer_1" xmlns="http://www.w3.org/2000/svg" xmlns:xlink="http://www.w3.org/1999/xlink" x="0px" y="0px"
	 viewBox="0 0 1380 549" enable-background="new 0 0 1380 549" xml:space="preserve">
<g>
	<defs>
		<rect id="SVGID_1_" width="1380" height="549"/>
	</defs>
	<clipPath id="SVGID_2_">
		<use xlink:href="#SVGID_1_"  overflow="visible"/>
	</clipPath>
	<g clip-path="url(#SVGID_2_)">
		<defs>
			<rect id="SVGID_3_" width="1380" height="549"/>
		</defs>
		<clipPath id="SVGID_4_">
			<use xlink:href="#SVGID_3_"  overflow="visible"/>
		</clipPath>
		<g clip-path="url(#SVGID_4_)">
			<defs>
				<path id="SVGID_5_" d="M-116,257.9c-11.6,11.6-11.6,31.1,0.4,43.1l516.4,516.4c12,12,32.3,11.1,45.3-1.9L794.5,467
					c12.8-12.8,14.2-32.9,0.8-46.4L280-94.6c-12-12-31.5-12-43.9,0.5L-116,257.9z"/>
			</defs>
			<clipPath id="SVGID_6_">
				<use xlink:href="#SVGID_5_"  overflow="visible"/>
			</clipPath>
			<g clip-path="url(#SVGID_6_)">
				<defs>
					<rect id="SVGID_7_" width="1380" height="549"/>
				</defs>
				<clipPath id="SVGID_8_">
					<use xlink:href="#SVGID_7_"  overflow="visible"/>
				</clipPath>
				<path clip-path="url(#SVGID_8_)" fill="none" stroke="#86939E" stroke-width="6" stroke-miterlimit="10" d="M-116,257.9
					c-11.6,11.6-11.6,31.1,0.4,43.1l516.4,516.4c12,12,32.3,11.1,45.3-1.9L794.5,467c12.8-12.8,14.2-32.9,0.8-46.4L280-94.6
					c-12-12-31.5-12-43.9,0.5L-116,257.9z"/>
			</g>
		</g>
		<g clip-path="url(#SVGID_4_)">
			<defs>
				<circle id="SVGID_9_" cx="85.2" cy="106.8" r="4.3"/>
			</defs>
			<clipPath id="SVGID_10_">
				<use xlink:href="#SVGID_9_"  overflow="visible"/>
			</clipPath>
			<g clip-path="url(#SVGID_10_)">
				<defs>
					<rect id="SVGID_11_" width="1380" height="549"/>
				</defs>
				<clipPath id="SVGID_12_">
					<use xlink:href="#SVGID_11_"  overflow="visible"/>
				</clipPath>
				
					<rect x="75.9" y="97.5" transform="matrix(-0.7071 -0.7071 0.7071 -0.7071 69.9521 242.5831)" clip-path="url(#SVGID_12_)" fill="#86939E" width="18.6" height="18.6"/>
			</g>
		</g>
		<g clip-path="url(#SVGID_4_)">
			<defs>
				<path id="SVGID_13_" d="M-61.1,298.8c-1.4,1.4-1.4,3.6,0,5l452.9,452.9c1.4,1.4,3.6,1.4,5,0l338.3-338.3c1.4-1.4,1.4-3.6,0-5
					L282.2-39.5c-1.4-1.4-3.6-1.4-5,0L-61.1,298.8z"/>
			</defs>
			<clipPath id="SVGID_14_">
				<use xlink:href="#SVGID_13_"  overflow="visible"/>
			</clipPath>
			<g clip-path="url(#SVGID_14_)">
				<defs>
					<rect id="SVGID_15_" width="1380" height="549"/>
				</defs>
				<clipPath id="SVGID_16_">
					<use xlink:href="#SVGID_15_"  overflow="visible"/>
				</clipPath>
				<path clip-path="url(#SVGID_16_)" fill="none" stroke="#86939E" stroke-width="4" stroke-miterlimit="10" d="M-61.1,298.8
					c-1.4,1.4-1.4,3.6,0,5l452.9,452.9c1.4,1.4,3.6,1.4,5,0l338.3-338.3c1.4-1.4,1.4-3.6,0-5L282.2-39.5c-1.4-1.4-3.6-1.4-5,0
					L-61.1,298.8z"/>
			</g>
		</g>
		<g clip-path="url(#SVGID_4_)">
			<defs>
				<rect id="SVGID_17_" width="1380" height="549"/>
			</defs>
			<clipPath id="SVGID_18_">
				<use xlink:href="#SVGID_17_"  overflow="visible"/>
			</clipPath>
			
				<line clip-path="url(#SVGID_18_)" fill="none" stroke="#86939E" stroke-width="3" stroke-linecap="round" stroke-linejoin="round" stroke-miterlimit="10" x1="302.3" y1="344.3" x2="332" y2="314.6"/>
			
				<polyline clip-path="url(#SVGID_18_)" fill="none" stroke="#86939E" stroke-width="3" stroke-linecap="round" stroke-linejoin="round" stroke-miterlimit="10" points="
				319.5,378.2 294,352.7 302.3,344.4 			"/>
			
				<polyline clip-path="url(#SVGID_18_)" fill="none" stroke="#86939E" stroke-width="3" stroke-linecap="round" stroke-linejoin="round" stroke-miterlimit="10" points="
				357.1,399.5 348.9,407.7 319.5,378.2 			"/>
			
				<polyline clip-path="url(#SVGID_18_)" fill="none" stroke="#86939E" stroke-width="3" stroke-linecap="round" stroke-linejoin="round" stroke-miterlimit="10" points="
				332.1,314.6 387,369.6 357.1,399.5 			"/>
			
				<ellipse transform="matrix(-0.7071 -0.7071 0.7071 -0.7071 338.07 839.4514)" clip-path="url(#SVGID_18_)" fill="none" stroke="#86939E" stroke-width="3" stroke-linecap="round" stroke-linejoin="round" stroke-miterlimit="10" cx="342.9" cy="349.7" rx="6" ry="6.2"/>
			
				<polyline clip-path="url(#SVGID_18_)" fill="none" stroke="#86939E" stroke-width="3" stroke-linecap="round" stroke-linejoin="round" stroke-miterlimit="10" points="
				325,383.2 325.6,344 302.6,344.4 			"/>
			
				<polyline clip-path="url(#SVGID_18_)" fill="none" stroke="#86939E" stroke-width="3" stroke-linecap="round" stroke-linejoin="round" stroke-miterlimit="10" points="
				357.1,399.2 357.6,366.8 330.9,367.2 			"/>
		</g>
		<g clip-path="url(#SVGID_4_)">
			<defs>
				<path id="SVGID_19_" d="M465.8,839.8c-11.6,11.6-11.6,31.1,0.4,43.1l516.4,516.4c12,12,32.3,11.1,45.3-1.9l348.5-348.5
					c12.8-12.8,14.2-32.9,0.8-46.4L861.8,487.2c-12-12-31.5-12-43.9,0.5L465.8,839.8z"/>
			</defs>
			<clipPath id="SVGID_20_">
				<use xlink:href="#SVGID_19_"  overflow="visible"/>
			</clipPath>
			<g clip-path="url(#SVGID_20_)">
				<defs>
					<rect id="SVGID_21_" width="1380" height="549"/>
				</defs>
				<clipPath id="SVGID_22_">
					<use xlink:href="#SVGID_21_"  overflow="visible"/>
				</clipPath>
				<path clip-path="url(#SVGID_22_)" fill="none" stroke="#86939E" stroke-width="6" stroke-miterlimit="10" d="M465.8,839.8
					c-11.6,11.6-11.6,31.1,0.4,43.1l516.4,516.4c12,12,32.3,11.1,45.3-1.9l348.5-348.5c12.8-12.8,14.2-32.9,0.8-46.4L861.8,487.2
					c-12-12-31.5-12-43.9,0.5L465.8,839.8z"/>
			</g>
		</g>
		<g clip-path="url(#SVGID_4_)">
			<defs>
				<path id="SVGID_23_" d="M520.8,880.7c-1.4,1.4-1.4,3.6,0,5l452.9,452.9c1.4,1.4,3.6,1.4,5,0l338.3-338.3c1.4-1.4,1.4-3.6,0-5
					L864,542.4c-1.4-1.4-3.6-1.4-5,0L520.8,880.7z"/>
			</defs>
			<clipPath id="SVGID_24_">
				<use xlink:href="#SVGID_23_"  overflow="visible"/>
			</clipPath>
			<g clip-path="url(#SVGID_24_)">
				<defs>
					<rect id="SVGID_25_" width="1380" height="549"/>
				</defs>
				<clipPath id="SVGID_26_">
					<use xlink:href="#SVGID_25_"  overflow="visible"/>
				</clipPath>
				<path clip-path="url(#SVGID_26_)" fill="none" stroke="#86939E" stroke-width="4" stroke-miterlimit="10" d="M520.8,880.7
					c-1.4,1.4-1.4,3.6,0,5l452.9,452.9c1.4,1.4,3.6,1.4,5,0l338.3-338.3c1.4-1.4,1.4-3.6,0-5L864,542.4c-1.4-1.4-3.6-1.4-5,0
					L520.8,880.7z"/>
			</g>
		</g>
		<g clip-path="url(#SVGID_4_)">
			<defs>
				<path id="SVGID_27_" d="M301.6-159.7c-11.6,11.6-11.6,31.1,0.4,43.1l516.4,516.4c12,12,32.3,11.1,45.3-1.9l348.5-348.5
					c12.8-12.8,14.2-32.9,0.8-46.4L697.6-512.3c-12-12-31.5-12-43.9,0.5L301.6-159.7z"/>
			</defs>
			<clipPath id="SVGID_28_">
				<use xlink:href="#SVGID_27_"  overflow="visible"/>
			</clipPath>
			<g clip-path="url(#SVGID_28_)">
				<defs>
					<rect id="SVGID_29_" width="1380" height="549"/>
				</defs>
				<clipPath id="SVGID_30_">
					<use xlink:href="#SVGID_29_"  overflow="visible"/>
				</clipPath>
				<path clip-path="url(#SVGID_30_)" fill="none" stroke="#86939E" stroke-width="6" stroke-miterlimit="10" d="M301.6-159.7
					c-11.6,11.6-11.6,31.1,0.4,43.1l516.4,516.4c12,12,32.3,11.1,45.3-1.9l348.5-348.5c12.8-12.8,14.2-32.9,0.8-46.4L697.6-512.3
					c-12-12-31.5-12-43.9,0.5L301.6-159.7z"/>
			</g>
		</g>
		<g clip-path="url(#SVGID_4_)">
			<defs>
				<rect id="SVGID_31_" width="1380" height="549"/>
			</defs>
			<clipPath id="SVGID_32_">
				<use xlink:href="#SVGID_31_"  overflow="visible"/>
			</clipPath>
			
				<circle clip-path="url(#SVGID_32_)" fill="none" stroke="#86939E" stroke-width="3" stroke-miterlimit="10" cx="1009.8" cy="195.5" r="18.7"/>
		</g>
		<g clip-path="url(#SVGID_4_)">
			<defs>
				<path id="SVGID_33_" d="M356.6-118.8c-1.4,1.4-1.4,3.6,0,5L809.5,339c1.4,1.4,3.6,1.4,5,0L1152.8,0.7c1.4-1.4,1.4-3.6,0-5
					L699.9-457.1c-1.4-1.4-3.6-1.4-5,0L356.6-118.8z"/>
			</defs>
			<clipPath id="SVGID_34_">
				<use xlink:href="#SVGID_33_"  overflow="visible"/>
			</clipPath>
			<g clip-path="url(#SVGID_34_)">
				<defs>
					<rect id="SVGID_35_" width="1380" height="549"/>
				</defs>
				<clipPath id="SVGID_36_">
					<use xlink:href="#SVGID_35_"  overflow="visible"/>
				</clipPath>
				<path clip-path="url(#SVGID_36_)" fill="none" stroke="#86939E" stroke-width="4" stroke-miterlimit="10" d="M356.6-118.8
					c-1.4,1.4-1.4,3.6,0,5L809.5,339c1.4,1.4,3.6,1.4,5,0L1152.8,0.7c1.4-1.4,1.4-3.6,0-5L699.9-457.1c-1.4-1.4-3.6-1.4-5,0
					L356.6-118.8z"/>
			</g>
		</g>
		<g clip-path="url(#SVGID_4_)">
			<defs>
				<path id="SVGID_37_" d="M883.5,422.1c-11.6,11.6-11.6,31.1,0.4,43.1l516.4,516.4c12,12,32.3,11.1,45.3-1.9L1794,631.2
					c12.8-12.8,14.2-32.9,0.8-46.4L1279.5,69.6c-12-12-31.5-12-43.9,0.5L883.5,422.1z"/>
			</defs>
			<clipPath id="SVGID_38_">
				<use xlink:href="#SVGID_37_"  overflow="visible"/>
			</clipPath>
			<g clip-path="url(#SVGID_38_)">
				<defs>
					<rect id="SVGID_39_" width="1380" height="549"/>
				</defs>
				<clipPath id="SVGID_40_">
					<use xlink:href="#SVGID_39_"  overflow="visible"/>
				</clipPath>
				<path clip-path="url(#SVGID_40_)" fill="none" stroke="#86939E" stroke-width="6" stroke-miterlimit="10" d="M883.5,422.1
					c-11.6,11.6-11.6,31.1,0.4,43.1l516.4,516.4c12,12,32.3,11.1,45.3-1.9L1794,631.2c12.8-12.8,14.2-32.9,0.8-46.4L1279.5,69.6
					c-12-12-31.5-12-43.9,0.5L883.5,422.1z"/>
			</g>
		</g>
		<g clip-path="url(#SVGID_4_)">
			<defs>
				<path id="SVGID_41_" d="M1081.7,268c1.7-1.7,4.4-1.7,6.1,0c1.7,1.7,1.7,4.4,0,6.1c-1.7,1.7-4.4,1.7-6.1,0
					C1080,272.4,1080,269.6,1081.7,268"/>
			</defs>
			<clipPath id="SVGID_42_">
				<use xlink:href="#SVGID_41_"  overflow="visible"/>
			</clipPath>
			<g clip-path="url(#SVGID_42_)">
				<defs>
					<rect id="SVGID_43_" width="1380" height="549"/>
				</defs>
				<clipPath id="SVGID_44_">
					<use xlink:href="#SVGID_43_"  overflow="visible"/>
				</clipPath>
				
					<rect x="1075.4" y="261.7" transform="matrix(-0.7071 -0.7071 0.7071 -0.7071 1660.1007 1229.6342)" clip-path="url(#SVGID_44_)" fill="#86939E" width="18.6" height="18.6"/>
			</g>
		</g>
		<g clip-path="url(#SVGID_4_)">
			<defs>
				<path id="SVGID_45_" d="M938.4,463c-1.4,1.4-1.4,3.6,0,5l452.9,452.9c1.4,1.4,3.6,1.4,5,0l338.3-338.3c1.4-1.4,1.4-3.6,0-5
					l-452.9-452.9c-1.4-1.4-3.6-1.4-5,0L938.4,463z"/>
			</defs>
			<clipPath id="SVGID_46_">
				<use xlink:href="#SVGID_45_"  overflow="visible"/>
			</clipPath>
			<g clip-path="url(#SVGID_46_)">
				<defs>
					<rect id="SVGID_47_" width="1380" height="549"/>
				</defs>
				<clipPath id="SVGID_48_">
					<use xlink:href="#SVGID_47_"  overflow="visible"/>
				</clipPath>
				<path clip-path="url(#SVGID_48_)" fill="none" stroke="#86939E" stroke-width="4" stroke-miterlimit="10" d="M938.4,463
					c-1.4,1.4-1.4,3.6,0,5l452.9,452.9c1.4,1.4,3.6,1.4,5,0l338.3-338.3c1.4-1.4,1.4-3.6,0-5l-452.9-452.9c-1.4-1.4-3.6-1.4-5,0
					L938.4,463z"/>
			</g>
		</g>
		<g clip-path="url(#SVGID_4_)">
			<defs>
				<rect id="SVGID_49_" width="1380" height="549"/>
			</defs>
			<clipPath id="SVGID_50_">
				<use xlink:href="#SVGID_49_"  overflow="visible"/>
			</clipPath>
			
				<line clip-path="url(#SVGID_50_)" fill="none" stroke="#86939E" stroke-width="3" stroke-linecap="round" stroke-linejoin="round" stroke-miterlimit="10" x1="1301.8" y1="508.5" x2="1331.5" y2="478.8"/>
			
				<polyline clip-path="url(#SVGID_50_)" fill="none" stroke="#86939E" stroke-width="3" stroke-linecap="round" stroke-linejoin="round" stroke-miterlimit="10" points="
				1319,542.4 1293.5,516.9 1301.8,508.6 			"/>
			
				<polyline clip-path="url(#SVGID_50_)" fill="none" stroke="#86939E" stroke-width="3" stroke-linecap="round" stroke-linejoin="round" stroke-miterlimit="10" points="
				1356.6,563.7 1348.4,571.9 1319,542.4 			"/>
			
				<polyline clip-path="url(#SVGID_50_)" fill="none" stroke="#86939E" stroke-width="3" stroke-linecap="round" stroke-linejoin="round" stroke-miterlimit="10" points="
				1331.6,478.8 1386.5,533.8 1356.6,563.7 			"/>
			
				<ellipse transform="matrix(-0.7071 -0.7071 0.7071 -0.7071 1928.2245 1826.5004)" clip-path="url(#SVGID_50_)" fill="none" stroke="#86939E" stroke-width="3" stroke-linecap="round" stroke-linejoin="round" stroke-miterlimit="10" cx="1342.4" cy="513.9" rx="6" ry="6.2"/>
			
				<polyline clip-path="url(#SVGID_50_)" fill="none" stroke="#86939E" stroke-width="3" stroke-linecap="round" stroke-linejoin="round" stroke-miterlimit="10" points="
				1324.5,547.4 1325.1,508.2 1302.1,508.6 			"/>
			
				<polyline clip-path="url(#SVGID_50_)" fill="none" stroke="#86939E" stroke-width="3" stroke-linecap="round" stroke-linejoin="round" stroke-miterlimit="10" points="
				1356.6,563.4 1357.1,531 1330.4,531.4 			"/>
		</g>
	</g>
</g>
</svg>
