<svg version="1.1" id="Layer_1" xmlns="http://www.w3.org/2000/svg" x="0" y="0" width="26" height="24" viewBox="0 0 26 24" xml:space="preserve"><style type="text/css">.st0{fill:#86939e}</style><path class="st0" d="M21.8 9.2C21.8 3.9 16.6.1 11 .1 5.1 0 0 3.8 0 9.1c0 1.9.7 3.7 1.8 5.1.1 1.7-.9 4.1-1.8 5.8 2.3-.4 5.7-1.4 7.2-2.3.9.2 1.7.3 2.5.4v-1.2c0-4.5 4.2-8.1 9.3-8.1 1 0 1.9.1 2.8.4z"/><path class="st0" d="M19 10.9c-3.7 0-7.1 2.5-7.1 6 0 3.6 3.9 6.9 9.4 5.6.9.6 3.1 1.2 4.8 1.6-.6-1.1-1.2-2.7-1.2-3.8.8-1 1.2-2.2 1.2-3.4 0-3.5-3.4-6-7.1-6z"/></svg>