<svg id="Layer_1" data-name="Layer 1" xmlns="http://www.w3.org/2000/svg" width="35" height="98" viewBox="0 0 35 98"><defs><style>.cls-1{fill:#da1c5c;stroke:#fff;stroke-miterlimit:10;}.cls-2{fill:#fff;}</style></defs><rect class="cls-1" x="0.5" y="0.5" width="34" height="97"/><path class="cls-2" d="M15,24.85a5,5,0,0,1-3.51-1.76A6.25,6.25,0,0,1,10.28,19a6.09,6.09,0,0,1,.8-3.14,5.34,5.34,0,0,1,2.26-2.1A7.77,7.77,0,0,1,16.75,13h1.31a7.83,7.83,0,0,1,3.51.75,5.42,5.42,0,0,1,2.34,2.15,6.27,6.27,0,0,1,.82,3.23,6,6,0,0,1-1.26,4,5.15,5.15,0,0,1-3.57,1.75V22.26a3.37,3.37,0,0,0,2.19-.94,3.22,3.22,0,0,0,.67-2.21,3.1,3.1,0,0,0-1.17-2.6,5.56,5.56,0,0,0-3.42-.93H16.92a5.89,5.89,0,0,0-3.48.87A2.93,2.93,0,0,0,12.25,19a3.49,3.49,0,0,0,.65,2.3,3.29,3.29,0,0,0,2.15,1Z"/><path class="cls-2" d="M15.79,26.46a5.86,5.86,0,0,1,2.77.65,4.55,4.55,0,0,1,1.89,1.81,5.37,5.37,0,0,1,.66,2.68,5,5,0,0,1-1.36,3.64,5.19,5.19,0,0,1-3.61,1.51h-.55a5.91,5.91,0,0,1-2.76-.63,4.5,4.5,0,0,1-1.88-1.8,5.4,5.4,0,0,1-.67-2.71,5,5,0,0,1,1.47-3.76,5.44,5.44,0,0,1,3.92-1.41Zm-.2,2.49a4,4,0,0,0-2.53.71,2.35,2.35,0,0,0-.91,2,2.32,2.32,0,0,0,.93,2,4.45,4.45,0,0,0,2.71.7,4,4,0,0,0,2.51-.72,2.36,2.36,0,0,0,.93-2,2.33,2.33,0,0,0-.91-1.94A4.36,4.36,0,0,0,15.59,28.95Z"/><path class="cls-2" d="M20.92,41.18l-1.21.07a4.09,4.09,0,0,1,1.4,3.23q0,3.46-3.74,3.53h-6.9V45.52h6.77a2.07,2.07,0,0,0,1.47-.46,2,2,0,0,0,.48-1.49,2.42,2.42,0,0,0-1.29-2.25H10.47V38.84H20.92Z"/><path class="cls-2" d="M23.46,53.67H20.92v2H19.18v-2H13.35a1.23,1.23,0,0,0-.86.25,1.21,1.21,0,0,0-.27.9,4,4,0,0,0,.1.87H10.5A6.48,6.48,0,0,1,10.28,54q0-2.87,3-2.87h5.92V49.35h1.74v1.83h2.54Z"/><path class="cls-2" d="M10.47,64.16a3.38,3.38,0,0,1,1-.29A4,4,0,0,1,10.28,61a4.07,4.07,0,0,1,.9-2.73,2.8,2.8,0,0,1,2.22-1.06A2.91,2.91,0,0,1,16,58.49a6.69,6.69,0,0,1,.89,3.77v1.53h.69a1.76,1.76,0,0,0,1.3-.48,2,2,0,0,0,.49-1.47,2.3,2.3,0,0,0-.4-1.39,1.22,1.22,0,0,0-1-.54V57.41a2.51,2.51,0,0,1,1.61.6,4,4,0,0,1,1.17,1.65A6.08,6.08,0,0,1,21.11,62a4.85,4.85,0,0,1-.92,3.11,3.2,3.2,0,0,1-2.59,1.19H12.88a5.08,5.08,0,0,0-2.25.42h-.16Zm1.69-2.74a3,3,0,0,0,.34,1.39,2.34,2.34,0,0,0,.91,1h2V62.44a3.86,3.86,0,0,0-.45-2.08,1.45,1.45,0,0,0-1.28-.7,1.33,1.33,0,0,0-1.08.48A1.92,1.92,0,0,0,12.16,61.42Z"/><path class="cls-2" d="M12.15,73.44A2.34,2.34,0,0,0,12.66,75a1.71,1.71,0,0,0,1.26.66V78a3.32,3.32,0,0,1-1.82-.65,4.17,4.17,0,0,1-1.34-1.64,5.13,5.13,0,0,1-.49-2.23,4.88,4.88,0,0,1,1.42-3.69,5.42,5.42,0,0,1,3.92-1.36h.24a5.33,5.33,0,0,1,3.82,1.35,4.83,4.83,0,0,1,1.44,3.69A4.72,4.72,0,0,1,20,76.69,3.79,3.79,0,0,1,17.17,78V75.65A2.08,2.08,0,0,0,18.65,75a2.16,2.16,0,0,0,.58-1.55,2.25,2.25,0,0,0-.82-1.87,4,4,0,0,0-2.51-.67h-.38a4.09,4.09,0,0,0-2.53.65A2.24,2.24,0,0,0,12.15,73.44Z"/><path class="cls-2" d="M23.46,83H20.92v2H19.18V83H13.35a1.23,1.23,0,0,0-.86.25,1.21,1.21,0,0,0-.27.9,4,4,0,0,0,.1.87H10.5a6.48,6.48,0,0,1-.22-1.64q0-2.87,3-2.87h5.92V78.68h1.74V80.5h2.54Z"/></svg>