<?xml version="1.0" encoding="UTF-8" standalone="no"?>
<svg width="38px" height="38px" viewBox="0 0 38 38" version="1.1" xmlns="http://www.w3.org/2000/svg" xmlns:xlink="http://www.w3.org/1999/xlink">
    <!-- Generator: Sketch 3.8.3 (29802) - http://www.bohemiancoding.com/sketch -->
    <title>Play Button</title>
    <desc>Created with Sketch.</desc>
    <defs>
        <path d="M19,38 C29.4934102,38 38,29.4934102 38,19 C38,8.50658975 29.4934102,0 19,0 C8.50658975,0 0,8.50658975 0,19 C0,29.4934102 8.50658975,38 19,38 Z" id="path-1"></path>
        <mask id="mask-2" maskContentUnits="userSpaceOnUse" maskUnits="objectBoundingBox" x="0" y="0" width="38" height="38" fill="white">
            <use xlink:href="#path-1"></use>
        </mask>
    </defs>
    <g id="Page-1" stroke="none" stroke-width="1" fill="none" fill-rule="evenodd">
        <g id="Desktop-Banner" transform="translate(-172.000000, -2680.000000)" fill="#FFFFFF">
            <g id="gallery" transform="translate(-2.000000, 0.000000)">
                <g id="executives-04" transform="translate(0.000000, 2100.000000)">
                    <g id="Play-Button" transform="translate(174.000000, 580.000000)">
                        <use id="Oval" stroke-opacity="0.11" stroke="#FFFFFF" mask="url(#mask-2)" stroke-width="4" fill-opacity="0.100000001" xlink:href="#path-1"></use>
                        <path d="M17.5652487,13.7500594 L23.2366984,18.3946283 C23.6195132,18.707937 23.6195132,19.2926765 23.2366984,19.6067607 L17.5652487,24.2497785 C17.0537566,24.6685575 16.2857143,24.3048402 16.2857143,23.6441001 L16.2857143,14.3565134 C16.2857143,13.6957733 17.0537566,13.3312805 17.5652487,13.7500594" id="Icon"></path>
                    </g>
                </g>
            </g>
        </g>
    </g>
</svg>