<?xml version="1.0" encoding="utf-8"?>
<!-- Generator: Adobe Illustrator 20.0.0, SVG Export Plug-In . SVG Version: 6.00 Build 0)  -->
<svg version="1.1" id="Layer_1" xmlns="http://www.w3.org/2000/svg" xmlns:xlink="http://www.w3.org/1999/xlink" x="0px" y="0px"
	 width="9.7px" height="16.8px" viewBox="0 0 9.7 16.8" style="enable-background:new 0 0 9.7 16.8;" xml:space="preserve">
<style type="text/css">
	.st0{display:none;fill-rule:evenodd;clip-rule:evenodd;fill:#007700;}
	.st1{fill-rule:evenodd;clip-rule:evenodd;fill:#FFFFFF;}
</style>
<path class="st0" d="M-18-2c0-1.7,1.4-3,3-3h40c1.7,0,3,1.3,3,3v20c0,1.7-1.4,3-3,3h-40c-1.7,0-3-1.3-3-3V-2L-18-2z"/>
<path class="st1" d="M9.6,3.1C9.1,3,8.5,3,8,3c0.1,0.9,0,1.9,0,2.8c0,1.8,0,3.7,0,5.5c0,0.6-0.3,1.2-0.9,1.4c-1.4,0.5-2.8,1-4.2,1.5
	c0-3,0-6,0-8.9c0-0.8,0-1.7,0-2.5c-0.1-0.5,0.5-1,1-0.9c1.9,0.2,3.8,0.5,5.7,0.6c0-0.3,0-0.7,0-1C7.1,1,4.6,0.5,2,0.1
	C1.7,0,1.3-0.1,0.9,0.1C0.3,0.3,0,0.9,0,1.5C0,2.7,0,4,0,5.2c0,3.5,0,7,0,10.5c0,0.6,0.4,1.1,1,1.1c0.4,0.1,0.9-0.1,1.3-0.3
	c2.1-0.9,4.3-1.8,6.4-2.6c0.7-0.3,1-1.1,0.9-1.8c0-1.9,0.1-3.8-0.1-5.7C9.7,5.3,9.6,4.2,9.6,3.1"/>
</svg>
