<svg id="Layer_1" data-name="Layer 1" xmlns="http://www.w3.org/2000/svg" width="89.54" height="50" viewBox="0 0 89.54 50"><defs><style>.cls-1{fill:#78a735;}</style></defs><title>hfm-logo-green</title><path class="cls-1" d="M.1,2.85A3.12,3.12,0,0,1,3.19,0a3.13,3.13,0,0,1,3.1,2.85V25A9.19,9.19,0,0,1,14,20.84c5.69,0,10.06,3.48,10.06,10.5V46.85A3.35,3.35,0,0,1,20.77,50a3.12,3.12,0,0,1-3.1-3.13h0a3.15,3.15,0,0,1,.06-.61V32.55c0-4.08-2.38-5.82-5-5.82-3.44,0-6.41,2.68-6.41,7.83V46.75A3.14,3.14,0,0,1,3.19,50a3.12,3.12,0,0,1-3.1-3.13h0L0,2.85Z"/><path class="cls-1" d="M6.29,2.85v.28A2.61,2.61,0,0,0,6.29,2.85ZM42,.74a2.75,2.75,0,0,1-.14,5.49A2.61,2.61,0,0,1,41,6.09a4.1,4.1,0,0,0-.86,0c-1.33.2-1.33.94-1.33,3.08V21.65h2.9a2.94,2.94,0,0,1,3.39,2.42,2.81,2.81,0,0,1,0,.5,3,3,0,0,1-2.93,3h-3.4V46.68a3.23,3.23,0,0,1-3.18,3.25,3.17,3.17,0,0,1-3.15-3.18l0-19.22H29.48a3,3,0,0,1,0-5.92,2.7,2.7,0,0,1,.49,0h2.55V6.86c0-4.28,3.64-6.43,7.08-6.43A7.24,7.24,0,0,1,42,.7v0Zm24,46c0-.11,0-.21,0-.32V31.68c0-3.41-2.18-4.95-5-4.95a6,6,0,0,0-6,6.22V46.82A3.21,3.21,0,0,1,52,49.93a3.15,3.15,0,0,1-3.13-3.18V24.31a3.14,3.14,0,1,1,6.27,0,9.65,9.65,0,0,1,7.3-3.47c4.37,0,6.88,1.54,8.67,4.28a11.43,11.43,0,0,1,8.86-4.28c7.21,0,9.6,4.62,9.6,10.24V46.82a3.21,3.21,0,0,1-3.17,3.11,3.16,3.16,0,0,1-3.14-3.17c0-.11,0-.23,0-.34V31.68c0-3.41-2-4.95-4.83-4.95a6.07,6.07,0,0,0-6.09,6.15V46.82a3.2,3.2,0,0,1-3.16,3.11A3.15,3.15,0,0,1,66,46.76Z"/></svg>