<?xml version="1.0" encoding="utf-8"?>
<!-- Generator: Adobe Illustrator 21.1.0, SVG Export Plug-In . SVG Version: 6.00 Build 0)  -->
<svg version="1.1" id="Layer_2" xmlns="http://www.w3.org/2000/svg" xmlns:xlink="http://www.w3.org/1999/xlink" x="0px" y="0px"
	 width="35px" height="35px" viewBox="0 0 35 35" style="enable-background:new 0 0 35 35;" xml:space="preserve">
<style type="text/css">
	.st0{fill:#ECF4FA;}
	.st1{fill:#9DACBA;}
</style>
<path class="st0" d="M17.5,35C7.9,35,0,27.1,0,17.5S7.9,0,17.5,0S35,7.9,35,17.5S27.1,35,17.5,35z M17.5,1.9
	c-8.6,0-15.6,7-15.6,15.6c0,8.6,7,15.6,15.6,15.6c8.6,0,15.6-7,15.6-15.6C33.1,8.9,26.1,1.9,17.5,1.9z"/>
<path class="st1" d="M20.3,18c0.2-0.3,0.2-0.7,0-0.9l-4.8-5c-0.1-0.1-0.3-0.1-0.4,0l-0.4,0.5c-0.1,0.1-0.1,0.3,0,0.5l4.2,4.3
	c0.1,0.1,0.1,0.3,0,0.5L14.6,22c-0.1,0.1-0.1,0.3,0,0.5L15,23c0.1,0.1,0.3,0.1,0.4,0L20.3,18z"/>
</svg>
