<svg id="Layer_1" data-name="Layer 1" xmlns="http://www.w3.org/2000/svg" width="31" height="31" viewBox="0 0 31 31"><defs><style>.cls-1{fill:#da1c5c;}</style></defs><title>linkarrow2-h</title><path class="cls-1" d="M15.5,2A13.5,13.5,0,1,1,2,15.5,13.57,13.57,0,0,1,15.5,2m0-2A15.5,15.5,0,1,0,31,15.5,15.45,15.45,0,0,0,15.5,0Z"/><path class="cls-1" d="M14.2,20.3l4.3-4.4a.61.61,0,0,0,0-.8l-4.3-4.4a.3.3,0,0,0-.4,0l-.4.4a.3.3,0,0,0,0,.4l3.7,3.8a.3.3,0,0,1,0,.4l-3.7,3.8a.3.3,0,0,0,0,.4l.4.4c.1.1.2.1.4,0"/></svg>