<svg version="1.1" viewBox="0 0 16 15.9" xml:space="preserve" xmlns="http://www.w3.org/2000/svg"><style type="text/css">.st0{fill:#fff}</style><path class="st0" d="M5.3 15.9V5.3l3.9-.2v1.5c.1-.2.3-.4.4-.6l.6-.6c.3-.2.6-.4.9-.5.4-.1.8-.2 1.2-.2 1.2 0 2.2.4 2.9 1.2.9 1 .8 2.1.8 3.6v6.4h-3.2l.1-5.9c0-.8-.1-1.3-.4-1.8-.3-.4-.7-.6-1.4-.6-.4 0-.8.1-1.1.4s-.8 1.2-.9 1.5c-.1.2 0 6.4 0 6.4H5.3zm-5.1-.2V5.1h3.5v10.6H.2zM0 1.8C0 1.3.2.8.6.5.9.2 1.4 0 2 0s1.1.2 1.4.5c.4.4.6.8.6 1.3s-.2 1-.5 1.3c-.4.4-.9.6-1.5.6S.9 3.5.6 3.2C.2 2.8 0 2.4 0 1.8z"/></svg>