<svg id="Layer_1" data-name="Layer 1" xmlns="http://www.w3.org/2000/svg" width="45.22" height="45" viewBox="0 0 45.22 45"><defs><style>.cls-1{fill:#fff;}</style></defs><title>pdf-download-btn-icon</title><path class="cls-1" d="M44.5,35.61h-3V25.44a1.29,1.29,0,0,0-1.21-1.32H36.56a1.33,1.33,0,0,0-1.27,1.32V35.61h-3a.74.74,0,0,0-.59,1.17l6.08,7.93a.75.75,0,0,0,1.17,0l6.08-8A.73.73,0,0,0,44.5,35.61Z"/><path class="cls-1" d="M40.41,22.09V13.48L26.93,0H12.15a2.06,2.06,0,0,0-2,2.1V4.15h1.7V3.08A1.33,1.33,0,0,1,13.13,1.7h13.8v9.71A2.07,2.07,0,0,0,29,13.48h9.73v8.59h1.7Z"/><path class="cls-1" d="M13.13,39.89a1.33,1.33,0,0,1-1.32-1.38V20.19h-1.7v19.3a2,2,0,0,0,2,2H32.8l-1.25-1.63Z"/><path class="cls-1" d="M16.1,34.85a1,1,0,0,1-1-.92c0-1.26,1.76-2.16,3.4-2.73a26.24,26.24,0,0,0,1.84-4.09l.21-.62a9.14,9.14,0,0,1-.69-3.06,2.24,2.24,0,0,1,.24-1.1,1.07,1.07,0,0,1,1-.57,1,1,0,0,1,.9.56,2.25,2.25,0,0,1,.2,1,11.47,11.47,0,0,1-.59,3.1,13,13,0,0,0,2.22,3.64c.48,0,.94-.06,1.37-.06a6.55,6.55,0,0,1,2,.24c.91.3,1,.86,1,1.16s-.15,1.23-1.58,1.23a4.67,4.67,0,0,1-3.19-1.57,22.61,22.61,0,0,0-4.22.89h0C18.27,33.45,17.17,34.85,16.1,34.85Zm0-1h0c.28,0,.8-.35,1.49-1.29C16.53,33.1,16.09,33.57,16,33.88ZM24.74,31a3.13,3.13,0,0,0,1.83.7c.62,0,.62-.18.62-.27s-.13-.16-.38-.24A5.73,5.73,0,0,0,25.13,31ZM21.09,27.8c-.31.84-.66,1.67-1,2.4l-.3.61a24.33,24.33,0,0,1,2.83-.57,12.65,12.65,0,0,1-.82-1.18C21.54,28.65,21.3,28.23,21.09,27.8ZM21,22.74c-.06,0-.09,0-.13.08a1.3,1.3,0,0,0-.11.63A5.9,5.9,0,0,0,21,24.79c.06-.26.1-.5.13-.73.14-1.05,0-1.31-.06-1.33Z"/><path class="cls-1" d="M5.46,10H5v1.83a2.33,2.33,0,0,0,.41,0c1.29,0,1.44-.52,1.44-1C6.83,10.61,6.84,10,5.46,10Z"/><path class="cls-1" d="M11.35,10c-.19,0-.47,0-.84.05v4.39l.77,0a1.75,1.75,0,0,0,1.62-.78,2.94,2.94,0,0,0,.39-1.57C13.29,10.64,12.68,10,11.35,10Z"/><path class="cls-1" d="M23.42,15.91V8.5a2.56,2.56,0,0,0-2.56-2.56H2.56A2.56,2.56,0,0,0,0,8.5v7.41a2.56,2.56,0,0,0,2.56,2.56H20.85A2.56,2.56,0,0,0,23.42,15.91ZM7.47,12.65a3.48,3.48,0,0,1-2.18.65H5v2.6H3.41V8.8l.27,0a11,11,0,0,1,1.78-.17,3.29,3.29,0,0,1,2.09.61,2,2,0,0,1,.82,1.66A2.15,2.15,0,0,1,7.47,12.65Zm6.6,2a3.55,3.55,0,0,1-2.93,1.2c-.39,0-1,0-1.85-.14L9,15.7V8.8l.25,0c1.06-.12,1.7-.18,2.08-.18A3.34,3.34,0,0,1,14.1,9.7a3.7,3.7,0,0,1,.74,2.39A4,4,0,0,1,14.07,14.67Zm6-4.58h-3v1.29h2.86v1.57H17.06v3H15.4V8.61h4.7Z"/></svg>