<svg viewBox="0 0 52 52" width="52" height="52" xmlns="http://www.w3.org/2000/svg" version="1"><title>  play button</title><desc>  Created with Sketch.</desc><defs>
        <linearGradient x1="127.907484%" y1="-51.1526071%" x2="-10.7568786%" y2="112.488244%" id="linearGradient-1">
            <stop stop-color="#7043A9" offset="0%"></stop>
            <stop stop-color="#61379A" offset="22.8571429%"></stop>
            <stop stop-color="#200255" offset="100%"></stop>
        </linearGradient>
    </defs><g style="fill-rule:evenodd;fill:none;opacity:0.7;stroke-width:1;stroke:none"><path d="M0 26C0 40.4 11.6 52 26 52 40.3 52 51.9 40.4 51.9 26 51.9 11.6 40.3 0 26 0 11.6 0 0 11.6 0 26Z" fill="url(#linearGradient-1)"/><path d="M35 24.6L22.4 15.6C22 15.3 21.4 15.3 20.8 15.5 20.3 15.8 20 16.3 20 16.8L20 34.7C20 35.2 20.3 35.8 20.8 36 21.1 36.1 21.3 36.2 21.5 36.2 21.8 36.2 22.2 36.1 22.4 35.9L35 27C35.4 26.7 35.6 26.2 35.6 25.8 35.6 25.3 35.4 24.8 35 24.6L35 24.6Z" fill="#fbfbfb"/></g></svg>