<?xml version="1.0" encoding="utf-8"?>
<!-- Generator: Adobe Illustrator 20.1.0, SVG Export Plug-In . SVG Version: 6.00 Build 0)  -->
<svg version="1.1" id="Layer_1" xmlns="http://www.w3.org/2000/svg" xmlns:xlink="http://www.w3.org/1999/xlink" x="0px" y="0px"
	 width="31px" height="31px" viewBox="0 0 31 31" style="enable-background:new 0 0 31 31;" xml:space="preserve">
<style type="text/css">
	.st0{opacity:0.2;fill:#FFFFFF;}
	.st1{fill:#FFFFFF;}
</style>
<path class="st0" d="M15.5,2C22.9,2,29,8.1,29,15.5S22.9,29,15.5,29S2,22.9,2,15.5S8.1,2,15.5,2 M15.5,0C6.9,0,0,6.9,0,15.5
	S6.9,31,15.5,31S31,24.1,31,15.5S24.1,0,15.5,0L15.5,0z"/>
<path class="st1" d="M14.2,20.3l4.3-4.4c0.2-0.2,0.2-0.6,0-0.8l-4.3-4.4c-0.1-0.1-0.3-0.1-0.4,0l-0.4,0.4c-0.1,0.1-0.1,0.3,0,0.4
	l3.7,3.8c0.1,0.1,0.1,0.3,0,0.4l-3.7,3.8c-0.1,0.1-0.1,0.3,0,0.4l0.4,0.4C13.9,20.4,14,20.4,14.2,20.3"/>
</svg>
