<?xml version="1.0" encoding="utf-8"?>
<!-- Generator: Adobe Illustrator 18.1.1, SVG Export Plug-In . SVG Version: 6.00 Build 0)  -->
<svg version="1.1" id="Layer_1" xmlns="http://www.w3.org/2000/svg" xmlns:xlink="http://www.w3.org/1999/xlink" x="0px" y="0px"
	 viewBox="0 0 16 16" enable-background="new 0 0 16 16" xml:space="preserve">
<path fill-rule="evenodd" clip-rule="evenodd" fill="#BDBCBC" d="M10.7,10.1h0.7l4.6,4.6L14.6,16l-4.6-4.6v-0.7l-0.3-0.3
	c-1,0.9-2.4,1.5-3.8,1.5C2.7,11.9,0,9.2,0,5.9S2.7,0,5.9,0s5.9,2.7,5.9,5.9c0,1.5-0.5,2.8-1.5,3.8L10.7,10.1z M5.9,1.8
	c-2.3,0-4.1,1.8-4.1,4.1s1.8,4.1,4.1,4.1s4.1-1.8,4.1-4.1S8.2,1.8,5.9,1.8z"/>
</svg>
