<svg version="1.1" id="Layer_1" xmlns="http://www.w3.org/2000/svg" x="0" y="0" width="22" height="15" viewBox="0 0 22 15" xml:space="preserve"><style type="text/css">.st0{fill:#fff}</style><path class="st0" d="M7.9 11.3c0 .3.1.5.4.7h.3c.2 0 .3 0 .4-.1l6.3-3.8c.2-.1.4-.3.4-.6s-.1-.5-.4-.6L9.1 3.1c-.3-.1-.6-.1-.8 0-.3.1-.4.4-.4.7v7.5zM0 7.5V5.7c0-.4 0-1 .1-1.6s.2-1.2.3-1.7c.1-.6.4-1 .8-1.4S2.1.4 2.7.3C4.6.1 7.3 0 11 0s6.4.1 8.2.3c.6.1 1.1.3 1.5.7s.7.9.9 1.4c.1.5.2 1.1.3 1.7 0 .7.1 1.2.1 1.6v3.6c0 .4 0 1-.1 1.6s-.2 1.2-.3 1.7c-.1.6-.4 1.1-.8 1.4-.4.4-.9.6-1.5.7-1.9.2-4.6.3-8.3.3s-6.4-.1-8.2-.3c-.6-.1-1.1-.3-1.5-.7s-.7-.9-.9-1.4c-.1-.5-.2-1.1-.3-1.7 0-.7-.1-1.2-.1-1.6V7.5z"/></svg>