<svg xmlns="http://www.w3.org/2000/svg" width="91.84" height="149.68" viewBox="0 0 91.84 149.68"><defs><style>.a{fill:#9e1f62;}</style></defs><title>27 mil</title><path class="a" d="M26.82,124.8v-3.62a8.45,8.45,0,0,0,5.35-2.3,6.93,6.93,0,0,0,1.92-5.08,7.76,7.76,0,0,0-.5-2.91,6.75,6.75,0,0,0-1.43-2.2,9.54,9.54,0,0,0-2.28-1.7,28.68,28.68,0,0,0-3.73-1.61,9.66,9.66,0,0,1-3.37-1.85,3.46,3.46,0,0,1-1-2.59,3.66,3.66,0,0,1,1-2.76,3.85,3.85,0,0,1,2.78-1,3.42,3.42,0,0,1,2.85,1.35,5.85,5.85,0,0,1,1,3.68H34a9.37,9.37,0,0,0-1.76-5.91,7.35,7.35,0,0,0-5-2.74V89.51h-3v4a8,8,0,0,0-5.08,2.36A7.08,7.08,0,0,0,17.28,101a7.39,7.39,0,0,0,4.32,6.87,26.11,26.11,0,0,0,3.64,1.53,8.78,8.78,0,0,1,3.34,1.86,3.59,3.59,0,0,1,1,2.61,3.51,3.51,0,0,1-1.1,2.71,4.58,4.58,0,0,1-3.22,1,4.3,4.3,0,0,1-3.33-1.28,5.15,5.15,0,0,1-1.18-3.62H16.24a8.56,8.56,0,0,0,2,5.9,8.48,8.48,0,0,0,5.65,2.63v3.6Z"/><path class="a" d="M45.49,108l-9,9.82v3.1H54.65v-3.6H42.11l6.6-7.07a24.06,24.06,0,0,0,3.74-5,9.26,9.26,0,0,0,1.14-4.24,6.86,6.86,0,0,0-2.27-5.46,9.14,9.14,0,0,0-6.21-2A10.22,10.22,0,0,0,40.3,94.6a7.73,7.73,0,0,0-3.21,3.07A8.83,8.83,0,0,0,36,102.11h4.51a5.25,5.25,0,0,1,1.21-3.66,4.34,4.34,0,0,1,3.4-1.34A3.76,3.76,0,0,1,48,98.31a4.44,4.44,0,0,1,1.09,3.12,5.88,5.88,0,0,1-.83,2.92A22.34,22.34,0,0,1,45.49,108Z"/><polygon class="a" points="59.02 120.89 63.75 120.89 74.55 96.38 74.55 93.87 55.82 93.87 55.82 97.49 69.8 97.49 59.02 120.89"/><path class="a" d="M28,136.12a5.57,5.57,0,0,0-1-3.67,3.49,3.49,0,0,0-2.81-1.22,3.81,3.81,0,0,0-2.11.58,4.31,4.31,0,0,0-1.45,1.57,3.25,3.25,0,0,0-1.25-1.61,3.59,3.59,0,0,0-2-.54,4.42,4.42,0,0,0-2,.45A3.8,3.8,0,0,0,13.86,133l-.14-1.51H10.07v1.36l1.75.3v8.3l-1.75.3v1.35h5.62v-1.35l-1.75-.3v-7a2.56,2.56,0,0,1,1-1.12,2.91,2.91,0,0,1,1.59-.4,2.12,2.12,0,0,1,1.76.76,3.81,3.81,0,0,1,.61,2.39v5.32l-1.75.3v1.35h5.62v-1.35l-1.75-.3v-5.73a3.38,3.38,0,0,1,.78-2,2.23,2.23,0,0,1,1.78-.78,2.14,2.14,0,0,1,1.75.71,3.86,3.86,0,0,1,.59,2.43v5.32l-1.75.3v1.35h5.63v-1.35l-1.75-.3Z"/><rect class="a" x="32.3" y="126.31" width="2.12" height="2.16"/><polygon class="a" points="34.42 131.44 30.55 131.44 30.55 132.81 32.3 133.11 32.3 141.41 30.55 141.71 30.55 143.07 36.17 143.07 36.17 141.71 34.42 141.41 34.42 131.44"/><polygon class="a" points="40.63 126.31 36.76 126.31 36.76 127.67 38.51 127.97 38.51 141.41 36.76 141.71 36.76 143.07 42.38 143.07 42.38 141.71 40.63 141.41 40.63 126.31"/><polygon class="a" points="46.83 126.31 42.97 126.31 42.97 127.67 44.72 127.97 44.72 141.41 42.97 141.71 42.97 143.07 48.58 143.07 48.58 141.71 46.83 141.41 46.83 126.31"/><polygon class="a" points="53.33 131.44 49.46 131.44 49.46 132.81 51.21 133.11 51.21 141.41 49.46 141.71 49.46 143.07 55.08 143.07 55.08 141.71 53.33 141.41 53.33 131.44"/><rect class="a" x="51.21" y="126.31" width="2.12" height="2.16"/><path class="a" d="M61.16,131.23a4.68,4.68,0,0,0-3.79,1.67,6.4,6.4,0,0,0-1.4,4.25v.24a6.38,6.38,0,0,0,1.4,4.25,5.19,5.19,0,0,0,7.61,0,6.37,6.37,0,0,0,1.4-4.25v-.24a6.37,6.37,0,0,0-1.4-4.25A4.71,4.71,0,0,0,61.16,131.23Zm3.09,6.16a5.49,5.49,0,0,1-.78,3.05,2.8,2.8,0,0,1-4.6,0,5.52,5.52,0,0,1-.78-3.05v-.24a5.55,5.55,0,0,1,.77-3,2.79,2.79,0,0,1,4.61,0,5.5,5.5,0,0,1,.78,3Z"/><path class="a" d="M78.45,135.73a4.83,4.83,0,0,0-1-3.4,3.79,3.79,0,0,0-2.91-1.1,3.88,3.88,0,0,0-2,.51,4.22,4.22,0,0,0-1.46,1.43l-.15-1.73H67.27v1.36l1.75.3v8.3l-1.75.3v1.35h5.62v-1.35l-1.75-.3v-6.82a3.21,3.21,0,0,1,1.12-1.2,3,3,0,0,1,1.62-.44,2.43,2.43,0,0,1,1.85.64,3.14,3.14,0,0,1,.61,2.18v5.64l-1.75.3v1.35H80.2v-1.35l-1.75-.3Z"/><rect class="a" x="6.96" y="10.58" width="2.67" height="1.5"/><rect class="a" x="82.19" y="10.58" width="2.67" height="1.5"/><rect class="a" x="6.96" y="61.68" width="2.67" height="1.5"/><rect class="a" x="82.19" y="61.68" width="2.67" height="1.5"/><path class="a" d="M21,80.6l1.25.83,8.22-12.48,14.57-.13V81.75h1.5V68.81L61,68.68l8.39,12.74,1.25-.83L62.74,68.67l29.38-.25L91.56,3.24l-38.37.33V0H38.65V3.7L-.28,4,.28,69.21,28.67,69ZM40.15,1.5H51.69V8.23H40.15Zm-38.92,4L38.65,5.2V9.73H53.19V5.07l36.88-.32.54,62.17-88.84.77Z"/><polygon class="a" points="57.01 22.56 66.11 22.56 44.93 43.74 32.08 30.89 12.89 50.08 17.84 55.02 32.08 40.79 44.93 53.64 71.09 27.48 71.09 36.37 77.09 36.37 77.09 16.56 57.01 16.56 57.01 22.56"/></svg>